<svg version="1.2"
    xmlns="http://www.w3.org/2000/svg" baseProfile="tiny-ps">
    <path stroke="lightslategrey" fill="grey" d="M60.2 33.5 42.8 24c-1.2-.7-2.5-1-3.9-1h-5.2c-1.5.1-2.9.4-4.3.9-4.2 1-8.7.5-12.5-1.4l-2.1-1.1c0-.2.1-.3.1-.5 0-1.4-1.1-2.6-2.5-2.6H9.5c-1.3 0-2.4 1.1-2.4 2.4V36c0 1.3 1.1 2.4 2.4 2.4h2.9c1.3 0 2.4-1.1 2.4-2.4l3.8 2c3.4 1.8 7.4 2.3 11.1 1.4 2.4-.6 6-1.6 8.5-1.5h5.5c1.9 0 3.4-1.6 3.4-3.5l10.4 4.5c1.6.7 3.4 0 4-1.6.6-1.4 0-3.1-1.3-3.8zM12.8 36c0 .2-.2.4-.4.4H9.5c-.2 0-.4-.2-.4-.4V20.7c0-.2.2-.4.4-.4h2.9c.2 0 .4.2.4.4V36zm46.8.5c-.2.5-.8.8-1.4.5l-12.8-5.5c-.6-.3-1.2-.5-1.8-.6-3-.6-7.8-.4-10.9-.4-.5 0-1 .4-1 1s.4 1 1 1c3.2 0 8.1-.2 11.1.5.7.1 1.2.7 1.2 1.4 0 .8-.6 1.5-1.4 1.5-2.8 0-7.3-.2-10 .5l-4.3 1.1c-3.3.8-6.7.4-9.7-1.2l-4.7-2.5V23.6l1.2.6c4.3 2.2 9.3 2.7 13.9 1.6 1.2-.4 2.5-.7 3.8-.8H39c1 0 2 .3 2.9.8l17.4 9.4c.4.3.5.8.3 1.3z"/>
    <path stroke="grey" fill="bisque" d="M63.1 75.7h54c10.6 0 19.2-7.1 19.2-16 0-8.7-8.4-15.8-18.8-16-.5-6.9-7.7-12.2-16-11.7-2.5.1-4.9.8-7.1 1.9-6.3-7.1-18.3-8.6-26.8-3.4-5.1 3.1-8.1 8.2-7.8 13.5-22.9 4-20.2 31.2 3.3 31.7zm-2.8-28.4c.5 2.1 4.8 10 8.1 7.5.8-.7.8-1.7 0-2.4-6-4.9-6.1-12.9-.3-17.9s15.5-5.1 21.5-.2c1.1.9 2 1.8 2.7 2.9.3.4.8.6 1.3.7.6.1 1.2-.1 1.6-.4 4.7-3.3 11.8-2.8 15.8 1.1 1.7 1.7 2.6 3.7 2.6 5.9-.2 1 .1 2.2 1.5 2.4.7.1 1.4.1 2.1 0 20.1.7 20.2 24.6 0 25.3h-54c-18.5-.2-20.8-21.7-2.9-24.9z"/>
</svg>